<svg xmlns="http://www.w3.org/2000/svg" xmlns:xlink="http://www.w3.org/1999/xlink" width="500" zoomAndPan="magnify" viewBox="0 0 375 374.999991" height="500" preserveAspectRatio="xMidYMid meet" version="1.0"><defs><g/><clipPath id="b51a25effe"><path d="M 258.5625 140.027344 L 296.8125 140.027344 L 296.8125 178.277344 L 258.5625 178.277344 Z M 258.5625 140.027344 " clip-rule="nonzero"/></clipPath><clipPath id="972a49fcd4"><path d="M 310.492188 146 L 348.742188 146 L 348.742188 174 L 310.492188 174 Z M 310.492188 146 " clip-rule="nonzero"/></clipPath><clipPath id="b04d4245a1"><path d="M 315.621094 155.304688 L 315.621094 159.519531 C 315.621094 159.695312 315.714844 159.859375 315.867188 159.945312 L 320.234375 162.464844 L 324.863281 165.136719 L 329.265625 167.679688 C 329.417969 167.765625 329.605469 167.765625 329.757812 167.679688 L 342.722656 160.195312 C 342.722656 160.195312 342.726562 160.203125 342.726562 160.207031 L 347.296875 157.566406 C 347.621094 157.378906 348.027344 157.613281 348.027344 157.988281 L 348.027344 162.210938 C 348.027344 162.378906 347.9375 162.542969 347.785156 162.628906 L 329.757812 173.027344 C 329.605469 173.113281 329.417969 173.113281 329.265625 173.027344 L 324.882812 170.496094 L 310.996094 162.476562 L 310.996094 147.285156 C 310.996094 146.910156 311.402344 146.675781 311.726562 146.863281 L 312.433594 147.269531 L 313.117188 147.667969 L 313.777344 148.046875 L 314.414062 148.417969 L 315.027344 148.769531 L 315.621094 149.113281 L 315.621094 149.117188 L 329.492188 157.117188 L 329.511719 157.132812 L 329.980469 156.863281 L 347.296875 146.863281 C 347.621094 146.675781 348.027344 146.910156 348.027344 147.289062 L 348.027344 151.503906 C 348.027344 151.679688 347.9375 151.839844 347.785156 151.925781 L 329.511719 162.480469 L 329.492188 162.464844 L 324.859375 159.792969 L 316.355469 154.882812 C 316.03125 154.695312 315.621094 154.929688 315.621094 155.304688 Z M 315.621094 155.304688 " clip-rule="nonzero"/></clipPath><linearGradient x1="6.600024" gradientTransform="matrix(0.0760781, 0, 0, 0.0760781, 310.492247, 135.912107)" y1="315.89001" x2="493.400034" gradientUnits="userSpaceOnUse" y2="315.89001" id="5eab2a536a"><stop stop-opacity="1" stop-color="rgb(0%, 59.199524%, 69.799805%)" offset="0"/><stop stop-opacity="1" stop-color="rgb(0.119019%, 59.072876%, 69.813538%)" offset="0.0078125"/><stop stop-opacity="1" stop-color="rgb(0.357056%, 58.822632%, 69.839478%)" offset="0.015625"/><stop stop-opacity="1" stop-color="rgb(0.596619%, 58.572388%, 69.866943%)" offset="0.0234375"/><stop stop-opacity="1" stop-color="rgb(0.836182%, 58.320618%, 69.894409%)" offset="0.03125"/><stop stop-opacity="1" stop-color="rgb(1.074219%, 58.070374%, 69.921875%)" offset="0.0390625"/><stop stop-opacity="1" stop-color="rgb(1.313782%, 57.820129%, 69.949341%)" offset="0.046875"/><stop stop-opacity="1" stop-color="rgb(1.553345%, 57.568359%, 69.976807%)" offset="0.0546875"/><stop stop-opacity="1" stop-color="rgb(1.791382%, 57.318115%, 70.004272%)" offset="0.0625"/><stop stop-opacity="1" stop-color="rgb(2.030945%, 57.067871%, 70.031738%)" offset="0.0703125"/><stop stop-opacity="1" stop-color="rgb(2.270508%, 56.816101%, 70.059204%)" offset="0.078125"/><stop stop-opacity="1" stop-color="rgb(2.508545%, 56.565857%, 70.08667%)" offset="0.0859375"/><stop stop-opacity="1" stop-color="rgb(2.748108%, 56.315613%, 70.114136%)" offset="0.09375"/><stop stop-opacity="1" stop-color="rgb(2.987671%, 56.063843%, 70.141602%)" offset="0.101563"/><stop stop-opacity="1" stop-color="rgb(3.225708%, 55.813599%, 70.169067%)" offset="0.109375"/><stop stop-opacity="1" stop-color="rgb(3.465271%, 55.563354%, 70.195007%)" offset="0.117188"/><stop stop-opacity="1" stop-color="rgb(3.704834%, 55.311584%, 70.222473%)" offset="0.125"/><stop stop-opacity="1" stop-color="rgb(3.942871%, 55.06134%, 70.249939%)" offset="0.132812"/><stop stop-opacity="1" stop-color="rgb(4.182434%, 54.80957%, 70.277405%)" offset="0.140625"/><stop stop-opacity="1" stop-color="rgb(4.421997%, 54.559326%, 70.304871%)" offset="0.148438"/><stop stop-opacity="1" stop-color="rgb(4.660034%, 54.309082%, 70.332336%)" offset="0.15625"/><stop stop-opacity="1" stop-color="rgb(4.899597%, 54.057312%, 70.359802%)" offset="0.164062"/><stop stop-opacity="1" stop-color="rgb(5.13916%, 53.807068%, 70.387268%)" offset="0.171875"/><stop stop-opacity="1" stop-color="rgb(5.377197%, 53.556824%, 70.414734%)" offset="0.179688"/><stop stop-opacity="1" stop-color="rgb(5.61676%, 53.305054%, 70.4422%)" offset="0.1875"/><stop stop-opacity="1" stop-color="rgb(5.856323%, 53.05481%, 70.469666%)" offset="0.195313"/><stop stop-opacity="1" stop-color="rgb(6.09436%, 52.804565%, 70.497131%)" offset="0.203125"/><stop stop-opacity="1" stop-color="rgb(6.333923%, 52.552795%, 70.523071%)" offset="0.210938"/><stop stop-opacity="1" stop-color="rgb(6.573486%, 52.302551%, 70.550537%)" offset="0.21875"/><stop stop-opacity="1" stop-color="rgb(6.811523%, 52.052307%, 70.578003%)" offset="0.226563"/><stop stop-opacity="1" stop-color="rgb(7.051086%, 51.800537%, 70.605469%)" offset="0.234375"/><stop stop-opacity="1" stop-color="rgb(7.290649%, 51.550293%, 70.632935%)" offset="0.242188"/><stop stop-opacity="1" stop-color="rgb(7.528687%, 51.300049%, 70.6604%)" offset="0.25"/><stop stop-opacity="1" stop-color="rgb(7.76825%, 51.048279%, 70.687866%)" offset="0.257812"/><stop stop-opacity="1" stop-color="rgb(8.007812%, 50.798035%, 70.715332%)" offset="0.265625"/><stop stop-opacity="1" stop-color="rgb(8.24585%, 50.546265%, 70.742798%)" offset="0.273438"/><stop stop-opacity="1" stop-color="rgb(8.485413%, 50.296021%, 70.770264%)" offset="0.28125"/><stop stop-opacity="1" stop-color="rgb(8.724976%, 50.045776%, 70.797729%)" offset="0.289062"/><stop stop-opacity="1" stop-color="rgb(8.963013%, 49.794006%, 70.825195%)" offset="0.296875"/><stop stop-opacity="1" stop-color="rgb(9.202576%, 49.543762%, 70.852661%)" offset="0.304688"/><stop stop-opacity="1" stop-color="rgb(9.442139%, 49.293518%, 70.878601%)" offset="0.3125"/><stop stop-opacity="1" stop-color="rgb(9.680176%, 49.041748%, 70.906067%)" offset="0.320312"/><stop stop-opacity="1" stop-color="rgb(9.919739%, 48.791504%, 70.933533%)" offset="0.328125"/><stop stop-opacity="1" stop-color="rgb(10.159302%, 48.54126%, 70.960999%)" offset="0.335938"/><stop stop-opacity="1" stop-color="rgb(10.397339%, 48.28949%, 70.988464%)" offset="0.34375"/><stop stop-opacity="1" stop-color="rgb(10.636902%, 48.039246%, 71.01593%)" offset="0.351562"/><stop stop-opacity="1" stop-color="rgb(10.876465%, 47.789001%, 71.043396%)" offset="0.359375"/><stop stop-opacity="1" stop-color="rgb(11.114502%, 47.537231%, 71.070862%)" offset="0.367188"/><stop stop-opacity="1" stop-color="rgb(11.354065%, 47.286987%, 71.098328%)" offset="0.375"/><stop stop-opacity="1" stop-color="rgb(11.593628%, 47.036743%, 71.125793%)" offset="0.382813"/><stop stop-opacity="1" stop-color="rgb(11.831665%, 46.784973%, 71.153259%)" offset="0.390625"/><stop stop-opacity="1" stop-color="rgb(12.071228%, 46.534729%, 71.180725%)" offset="0.398438"/><stop stop-opacity="1" stop-color="rgb(12.310791%, 46.284485%, 71.206665%)" offset="0.40625"/><stop stop-opacity="1" stop-color="rgb(12.548828%, 46.032715%, 71.234131%)" offset="0.414063"/><stop stop-opacity="1" stop-color="rgb(12.788391%, 45.782471%, 71.261597%)" offset="0.421875"/><stop stop-opacity="1" stop-color="rgb(13.027954%, 45.530701%, 71.289062%)" offset="0.429688"/><stop stop-opacity="1" stop-color="rgb(13.265991%, 45.280457%, 71.316528%)" offset="0.4375"/><stop stop-opacity="1" stop-color="rgb(13.505554%, 45.030212%, 71.343994%)" offset="0.445313"/><stop stop-opacity="1" stop-color="rgb(13.745117%, 44.778442%, 71.37146%)" offset="0.453125"/><stop stop-opacity="1" stop-color="rgb(13.983154%, 44.528198%, 71.398926%)" offset="0.460938"/><stop stop-opacity="1" stop-color="rgb(14.222717%, 44.277954%, 71.426392%)" offset="0.46875"/><stop stop-opacity="1" stop-color="rgb(14.46228%, 44.026184%, 71.453857%)" offset="0.476563"/><stop stop-opacity="1" stop-color="rgb(14.700317%, 43.77594%, 71.481323%)" offset="0.484375"/><stop stop-opacity="1" stop-color="rgb(14.93988%, 43.525696%, 71.508789%)" offset="0.492188"/><stop stop-opacity="1" stop-color="rgb(15.179443%, 43.273926%, 71.536255%)" offset="0.5"/><stop stop-opacity="1" stop-color="rgb(15.419006%, 43.023682%, 71.562195%)" offset="0.507812"/><stop stop-opacity="1" stop-color="rgb(15.657043%, 42.773438%, 71.589661%)" offset="0.515625"/><stop stop-opacity="1" stop-color="rgb(15.896606%, 42.521667%, 71.617126%)" offset="0.523438"/><stop stop-opacity="1" stop-color="rgb(16.136169%, 42.271423%, 71.644592%)" offset="0.53125"/><stop stop-opacity="1" stop-color="rgb(16.374207%, 42.021179%, 71.672058%)" offset="0.539062"/><stop stop-opacity="1" stop-color="rgb(16.61377%, 41.769409%, 71.699524%)" offset="0.546875"/><stop stop-opacity="1" stop-color="rgb(16.853333%, 41.519165%, 71.72699%)" offset="0.554688"/><stop stop-opacity="1" stop-color="rgb(17.09137%, 41.267395%, 71.754456%)" offset="0.5625"/><stop stop-opacity="1" stop-color="rgb(17.330933%, 41.017151%, 71.781921%)" offset="0.570312"/><stop stop-opacity="1" stop-color="rgb(17.570496%, 40.766907%, 71.809387%)" offset="0.578125"/><stop stop-opacity="1" stop-color="rgb(17.808533%, 40.515137%, 71.836853%)" offset="0.585938"/><stop stop-opacity="1" stop-color="rgb(18.048096%, 40.264893%, 71.864319%)" offset="0.59375"/><stop stop-opacity="1" stop-color="rgb(18.287659%, 40.014648%, 71.890259%)" offset="0.601562"/><stop stop-opacity="1" stop-color="rgb(18.525696%, 39.762878%, 71.917725%)" offset="0.609375"/><stop stop-opacity="1" stop-color="rgb(18.765259%, 39.512634%, 71.94519%)" offset="0.617188"/><stop stop-opacity="1" stop-color="rgb(19.004822%, 39.26239%, 71.972656%)" offset="0.625"/><stop stop-opacity="1" stop-color="rgb(19.242859%, 39.01062%, 72.000122%)" offset="0.632812"/><stop stop-opacity="1" stop-color="rgb(19.482422%, 38.760376%, 72.027588%)" offset="0.640625"/><stop stop-opacity="1" stop-color="rgb(19.721985%, 38.510132%, 72.055054%)" offset="0.648438"/><stop stop-opacity="1" stop-color="rgb(19.960022%, 38.258362%, 72.08252%)" offset="0.65625"/><stop stop-opacity="1" stop-color="rgb(20.199585%, 38.008118%, 72.109985%)" offset="0.664062"/><stop stop-opacity="1" stop-color="rgb(20.439148%, 37.757874%, 72.137451%)" offset="0.671875"/><stop stop-opacity="1" stop-color="rgb(20.677185%, 37.506104%, 72.164917%)" offset="0.679688"/><stop stop-opacity="1" stop-color="rgb(20.916748%, 37.255859%, 72.192383%)" offset="0.6875"/><stop stop-opacity="1" stop-color="rgb(21.156311%, 37.004089%, 72.219849%)" offset="0.695312"/><stop stop-opacity="1" stop-color="rgb(21.394348%, 36.753845%, 72.245789%)" offset="0.703125"/><stop stop-opacity="1" stop-color="rgb(21.633911%, 36.503601%, 72.273254%)" offset="0.710938"/><stop stop-opacity="1" stop-color="rgb(21.873474%, 36.251831%, 72.30072%)" offset="0.71875"/><stop stop-opacity="1" stop-color="rgb(22.111511%, 36.001587%, 72.328186%)" offset="0.726562"/><stop stop-opacity="1" stop-color="rgb(22.351074%, 35.751343%, 72.355652%)" offset="0.734375"/><stop stop-opacity="1" stop-color="rgb(22.590637%, 35.499573%, 72.383118%)" offset="0.742188"/><stop stop-opacity="1" stop-color="rgb(22.828674%, 35.249329%, 72.410583%)" offset="0.75"/><stop stop-opacity="1" stop-color="rgb(23.068237%, 34.999084%, 72.438049%)" offset="0.757813"/><stop stop-opacity="1" stop-color="rgb(23.3078%, 34.747314%, 72.465515%)" offset="0.765625"/><stop stop-opacity="1" stop-color="rgb(23.545837%, 34.49707%, 72.492981%)" offset="0.773438"/><stop stop-opacity="1" stop-color="rgb(23.7854%, 34.246826%, 72.520447%)" offset="0.78125"/><stop stop-opacity="1" stop-color="rgb(24.024963%, 33.995056%, 72.547913%)" offset="0.789063"/><stop stop-opacity="1" stop-color="rgb(24.263%, 33.744812%, 72.573853%)" offset="0.796875"/><stop stop-opacity="1" stop-color="rgb(24.502563%, 33.494568%, 72.601318%)" offset="0.804688"/><stop stop-opacity="1" stop-color="rgb(24.742126%, 33.242798%, 72.628784%)" offset="0.8125"/><stop stop-opacity="1" stop-color="rgb(24.980164%, 32.992554%, 72.65625%)" offset="0.820313"/><stop stop-opacity="1" stop-color="rgb(25.219727%, 32.740784%, 72.683716%)" offset="0.828125"/><stop stop-opacity="1" stop-color="rgb(25.45929%, 32.49054%, 72.711182%)" offset="0.835938"/><stop stop-opacity="1" stop-color="rgb(25.697327%, 32.240295%, 72.738647%)" offset="0.84375"/><stop stop-opacity="1" stop-color="rgb(25.93689%, 31.988525%, 72.766113%)" offset="0.851563"/><stop stop-opacity="1" stop-color="rgb(26.176453%, 31.738281%, 72.793579%)" offset="0.859375"/><stop stop-opacity="1" stop-color="rgb(26.41449%, 31.488037%, 72.821045%)" offset="0.867188"/><stop stop-opacity="1" stop-color="rgb(26.654053%, 31.236267%, 72.848511%)" offset="0.875"/><stop stop-opacity="1" stop-color="rgb(26.893616%, 30.986023%, 72.875977%)" offset="0.882813"/><stop stop-opacity="1" stop-color="rgb(27.131653%, 30.735779%, 72.903442%)" offset="0.890625"/><stop stop-opacity="1" stop-color="rgb(27.371216%, 30.484009%, 72.929382%)" offset="0.898438"/><stop stop-opacity="1" stop-color="rgb(27.610779%, 30.233765%, 72.956848%)" offset="0.90625"/><stop stop-opacity="1" stop-color="rgb(27.848816%, 29.983521%, 72.984314%)" offset="0.914063"/><stop stop-opacity="1" stop-color="rgb(28.088379%, 29.73175%, 73.01178%)" offset="0.921875"/><stop stop-opacity="1" stop-color="rgb(28.327942%, 29.481506%, 73.039246%)" offset="0.929688"/><stop stop-opacity="1" stop-color="rgb(28.565979%, 29.231262%, 73.066711%)" offset="0.9375"/><stop stop-opacity="1" stop-color="rgb(28.805542%, 28.979492%, 73.094177%)" offset="0.945313"/><stop stop-opacity="1" stop-color="rgb(29.045105%, 28.729248%, 73.121643%)" offset="0.953125"/><stop stop-opacity="1" stop-color="rgb(29.283142%, 28.479004%, 73.149109%)" offset="0.960938"/><stop stop-opacity="1" stop-color="rgb(29.522705%, 28.227234%, 73.176575%)" offset="0.96875"/><stop stop-opacity="1" stop-color="rgb(29.762268%, 27.97699%, 73.204041%)" offset="0.976563"/><stop stop-opacity="1" stop-color="rgb(30.001831%, 27.72522%, 73.231506%)" offset="0.984375"/><stop stop-opacity="1" stop-color="rgb(30.239868%, 27.474976%, 73.257446%)" offset="0.992188"/><stop stop-opacity="1" stop-color="rgb(30.479431%, 27.224731%, 73.284912%)" offset="1"/></linearGradient><clipPath id="0d29fa3c15"><path d="M 313 136 L 346 136 L 346 148 L 313 148 Z M 313 136 " clip-rule="nonzero"/></clipPath><clipPath id="0398a955b8"><path d="M 313.816406 144.207031 L 329.4375 136.828125 C 329.597656 136.753906 329.78125 136.753906 329.9375 136.828125 L 345.179688 144.199219 C 345.59375 144.402344 345.617188 144.992188 345.214844 145.222656 L 341.980469 147.085938 C 341.8125 147.183594 341.609375 147.1875 341.4375 147.105469 L 329.980469 141.558594 C 329.824219 141.484375 329.640625 141.480469 329.484375 141.554688 L 317.527344 147.113281 C 317.355469 147.191406 317.15625 147.183594 316.992188 147.089844 L 313.773438 145.230469 C 313.367188 144.996094 313.390625 144.40625 313.8125 144.207031 Z M 313.816406 144.207031 " clip-rule="nonzero"/></clipPath><linearGradient x1="37.799989" gradientTransform="matrix(0.0760781, 0, 0, 0.0760781, 310.492247, 135.912107)" y1="79.610001" x2="461.689985" gradientUnits="userSpaceOnUse" y2="79.610001" id="5ce344b693"><stop stop-opacity="1" stop-color="rgb(0%, 59.199524%, 69.799805%)" offset="0"/><stop stop-opacity="1" stop-color="rgb(0.184631%, 59.004211%, 69.819641%)" offset="0.015625"/><stop stop-opacity="1" stop-color="rgb(0.489807%, 58.683777%, 69.854736%)" offset="0.0234375"/><stop stop-opacity="1" stop-color="rgb(0.730896%, 58.430481%, 69.882202%)" offset="0.03125"/><stop stop-opacity="1" stop-color="rgb(0.971985%, 58.178711%, 69.911194%)" offset="0.0390625"/><stop stop-opacity="1" stop-color="rgb(1.213074%, 57.925415%, 69.93866%)" offset="0.046875"/><stop stop-opacity="1" stop-color="rgb(1.454163%, 57.673645%, 69.966125%)" offset="0.0546875"/><stop stop-opacity="1" stop-color="rgb(1.693726%, 57.420349%, 69.993591%)" offset="0.0625"/><stop stop-opacity="1" stop-color="rgb(1.934814%, 57.168579%, 70.021057%)" offset="0.0703125"/><stop stop-opacity="1" stop-color="rgb(2.175903%, 56.915283%, 70.048523%)" offset="0.078125"/><stop stop-opacity="1" stop-color="rgb(2.416992%, 56.663513%, 70.075989%)" offset="0.0859375"/><stop stop-opacity="1" stop-color="rgb(2.656555%, 56.410217%, 70.103455%)" offset="0.09375"/><stop stop-opacity="1" stop-color="rgb(2.897644%, 56.158447%, 70.13092%)" offset="0.101562"/><stop stop-opacity="1" stop-color="rgb(3.138733%, 55.905151%, 70.158386%)" offset="0.109375"/><stop stop-opacity="1" stop-color="rgb(3.379822%, 55.653381%, 70.185852%)" offset="0.117188"/><stop stop-opacity="1" stop-color="rgb(3.620911%, 55.400085%, 70.213318%)" offset="0.125"/><stop stop-opacity="1" stop-color="rgb(3.860474%, 55.14679%, 70.240784%)" offset="0.132813"/><stop stop-opacity="1" stop-color="rgb(4.101562%, 54.89502%, 70.26825%)" offset="0.140625"/><stop stop-opacity="1" stop-color="rgb(4.342651%, 54.641724%, 70.295715%)" offset="0.148438"/><stop stop-opacity="1" stop-color="rgb(4.58374%, 54.389954%, 70.323181%)" offset="0.15625"/><stop stop-opacity="1" stop-color="rgb(4.824829%, 54.136658%, 70.350647%)" offset="0.164062"/><stop stop-opacity="1" stop-color="rgb(5.064392%, 53.884888%, 70.378113%)" offset="0.171875"/><stop stop-opacity="1" stop-color="rgb(5.305481%, 53.631592%, 70.405579%)" offset="0.179688"/><stop stop-opacity="1" stop-color="rgb(5.54657%, 53.379822%, 70.433044%)" offset="0.1875"/><stop stop-opacity="1" stop-color="rgb(5.787659%, 53.126526%, 70.46051%)" offset="0.195312"/><stop stop-opacity="1" stop-color="rgb(6.027222%, 52.874756%, 70.489502%)" offset="0.203125"/><stop stop-opacity="1" stop-color="rgb(6.268311%, 52.62146%, 70.516968%)" offset="0.210938"/><stop stop-opacity="1" stop-color="rgb(6.509399%, 52.36969%, 70.544434%)" offset="0.21875"/><stop stop-opacity="1" stop-color="rgb(6.750488%, 52.116394%, 70.571899%)" offset="0.226562"/><stop stop-opacity="1" stop-color="rgb(6.991577%, 51.864624%, 70.599365%)" offset="0.234375"/><stop stop-opacity="1" stop-color="rgb(7.23114%, 51.611328%, 70.626831%)" offset="0.242187"/><stop stop-opacity="1" stop-color="rgb(7.472229%, 51.359558%, 70.654297%)" offset="0.25"/><stop stop-opacity="1" stop-color="rgb(7.713318%, 51.106262%, 70.681763%)" offset="0.257812"/><stop stop-opacity="1" stop-color="rgb(7.954407%, 50.854492%, 70.709229%)" offset="0.265625"/><stop stop-opacity="1" stop-color="rgb(8.195496%, 50.601196%, 70.736694%)" offset="0.273438"/><stop stop-opacity="1" stop-color="rgb(8.435059%, 50.349426%, 70.76416%)" offset="0.28125"/><stop stop-opacity="1" stop-color="rgb(8.676147%, 50.09613%, 70.791626%)" offset="0.289063"/><stop stop-opacity="1" stop-color="rgb(8.917236%, 49.84436%, 70.819092%)" offset="0.296875"/><stop stop-opacity="1" stop-color="rgb(9.158325%, 49.591064%, 70.846558%)" offset="0.304688"/><stop stop-opacity="1" stop-color="rgb(9.397888%, 49.339294%, 70.874023%)" offset="0.3125"/><stop stop-opacity="1" stop-color="rgb(9.638977%, 49.085999%, 70.901489%)" offset="0.320312"/><stop stop-opacity="1" stop-color="rgb(9.880066%, 48.832703%, 70.928955%)" offset="0.328125"/><stop stop-opacity="1" stop-color="rgb(10.121155%, 48.580933%, 70.956421%)" offset="0.335938"/><stop stop-opacity="1" stop-color="rgb(10.362244%, 48.327637%, 70.983887%)" offset="0.34375"/><stop stop-opacity="1" stop-color="rgb(10.601807%, 48.075867%, 71.011353%)" offset="0.351562"/><stop stop-opacity="1" stop-color="rgb(10.842896%, 47.822571%, 71.038818%)" offset="0.359375"/><stop stop-opacity="1" stop-color="rgb(11.083984%, 47.570801%, 71.06781%)" offset="0.367188"/><stop stop-opacity="1" stop-color="rgb(11.325073%, 47.317505%, 71.095276%)" offset="0.375"/><stop stop-opacity="1" stop-color="rgb(11.566162%, 47.065735%, 71.122742%)" offset="0.382812"/><stop stop-opacity="1" stop-color="rgb(11.805725%, 46.812439%, 71.150208%)" offset="0.390625"/><stop stop-opacity="1" stop-color="rgb(12.046814%, 46.560669%, 71.177673%)" offset="0.398438"/><stop stop-opacity="1" stop-color="rgb(12.287903%, 46.307373%, 71.205139%)" offset="0.40625"/><stop stop-opacity="1" stop-color="rgb(12.528992%, 46.055603%, 71.232605%)" offset="0.414062"/><stop stop-opacity="1" stop-color="rgb(12.768555%, 45.802307%, 71.260071%)" offset="0.421875"/><stop stop-opacity="1" stop-color="rgb(13.009644%, 45.550537%, 71.287537%)" offset="0.429688"/><stop stop-opacity="1" stop-color="rgb(13.250732%, 45.297241%, 71.315002%)" offset="0.4375"/><stop stop-opacity="1" stop-color="rgb(13.491821%, 45.045471%, 71.342468%)" offset="0.445312"/><stop stop-opacity="1" stop-color="rgb(13.73291%, 44.792175%, 71.369934%)" offset="0.453125"/><stop stop-opacity="1" stop-color="rgb(13.972473%, 44.540405%, 71.3974%)" offset="0.460937"/><stop stop-opacity="1" stop-color="rgb(14.213562%, 44.287109%, 71.424866%)" offset="0.46875"/><stop stop-opacity="1" stop-color="rgb(14.454651%, 44.035339%, 71.452332%)" offset="0.476562"/><stop stop-opacity="1" stop-color="rgb(14.69574%, 43.782043%, 71.479797%)" offset="0.484375"/><stop stop-opacity="1" stop-color="rgb(14.936829%, 43.530273%, 71.507263%)" offset="0.492188"/><stop stop-opacity="1" stop-color="rgb(15.176392%, 43.276978%, 71.534729%)" offset="0.5"/><stop stop-opacity="1" stop-color="rgb(15.41748%, 43.025208%, 71.562195%)" offset="0.507812"/><stop stop-opacity="1" stop-color="rgb(15.658569%, 42.771912%, 71.589661%)" offset="0.515625"/><stop stop-opacity="1" stop-color="rgb(15.899658%, 42.518616%, 71.617126%)" offset="0.523438"/><stop stop-opacity="1" stop-color="rgb(16.139221%, 42.266846%, 71.646118%)" offset="0.53125"/><stop stop-opacity="1" stop-color="rgb(16.38031%, 42.01355%, 71.673584%)" offset="0.539062"/><stop stop-opacity="1" stop-color="rgb(16.621399%, 41.76178%, 71.70105%)" offset="0.546875"/><stop stop-opacity="1" stop-color="rgb(16.862488%, 41.508484%, 71.728516%)" offset="0.554688"/><stop stop-opacity="1" stop-color="rgb(17.103577%, 41.256714%, 71.755981%)" offset="0.5625"/><stop stop-opacity="1" stop-color="rgb(17.34314%, 41.003418%, 71.783447%)" offset="0.570313"/><stop stop-opacity="1" stop-color="rgb(17.584229%, 40.751648%, 71.810913%)" offset="0.578125"/><stop stop-opacity="1" stop-color="rgb(17.825317%, 40.498352%, 71.838379%)" offset="0.585938"/><stop stop-opacity="1" stop-color="rgb(18.066406%, 40.246582%, 71.865845%)" offset="0.59375"/><stop stop-opacity="1" stop-color="rgb(18.307495%, 39.993286%, 71.893311%)" offset="0.601562"/><stop stop-opacity="1" stop-color="rgb(18.547058%, 39.741516%, 71.920776%)" offset="0.609375"/><stop stop-opacity="1" stop-color="rgb(18.788147%, 39.48822%, 71.948242%)" offset="0.617188"/><stop stop-opacity="1" stop-color="rgb(19.029236%, 39.23645%, 71.975708%)" offset="0.625"/><stop stop-opacity="1" stop-color="rgb(19.270325%, 38.983154%, 72.003174%)" offset="0.632812"/><stop stop-opacity="1" stop-color="rgb(19.509888%, 38.731384%, 72.03064%)" offset="0.640625"/><stop stop-opacity="1" stop-color="rgb(19.750977%, 38.478088%, 72.058105%)" offset="0.648437"/><stop stop-opacity="1" stop-color="rgb(19.992065%, 38.226318%, 72.085571%)" offset="0.65625"/><stop stop-opacity="1" stop-color="rgb(20.233154%, 37.973022%, 72.113037%)" offset="0.664063"/><stop stop-opacity="1" stop-color="rgb(20.474243%, 37.721252%, 72.140503%)" offset="0.671875"/><stop stop-opacity="1" stop-color="rgb(20.713806%, 37.467957%, 72.167969%)" offset="0.679688"/><stop stop-opacity="1" stop-color="rgb(20.954895%, 37.216187%, 72.195435%)" offset="0.6875"/><stop stop-opacity="1" stop-color="rgb(21.195984%, 36.962891%, 72.224426%)" offset="0.695312"/><stop stop-opacity="1" stop-color="rgb(21.437073%, 36.711121%, 72.251892%)" offset="0.703125"/><stop stop-opacity="1" stop-color="rgb(21.678162%, 36.457825%, 72.279358%)" offset="0.710938"/><stop stop-opacity="1" stop-color="rgb(21.917725%, 36.206055%, 72.306824%)" offset="0.71875"/><stop stop-opacity="1" stop-color="rgb(22.158813%, 35.952759%, 72.33429%)" offset="0.726562"/><stop stop-opacity="1" stop-color="rgb(22.399902%, 35.699463%, 72.361755%)" offset="0.734375"/><stop stop-opacity="1" stop-color="rgb(22.640991%, 35.447693%, 72.389221%)" offset="0.742187"/><stop stop-opacity="1" stop-color="rgb(22.880554%, 35.194397%, 72.416687%)" offset="0.75"/><stop stop-opacity="1" stop-color="rgb(23.121643%, 34.942627%, 72.444153%)" offset="0.757813"/><stop stop-opacity="1" stop-color="rgb(23.362732%, 34.689331%, 72.471619%)" offset="0.765625"/><stop stop-opacity="1" stop-color="rgb(23.603821%, 34.437561%, 72.499084%)" offset="0.773438"/><stop stop-opacity="1" stop-color="rgb(23.84491%, 34.184265%, 72.52655%)" offset="0.78125"/><stop stop-opacity="1" stop-color="rgb(24.084473%, 33.932495%, 72.554016%)" offset="0.789062"/><stop stop-opacity="1" stop-color="rgb(24.325562%, 33.679199%, 72.581482%)" offset="0.796875"/><stop stop-opacity="1" stop-color="rgb(24.56665%, 33.427429%, 72.608948%)" offset="0.804688"/><stop stop-opacity="1" stop-color="rgb(24.807739%, 33.174133%, 72.636414%)" offset="0.8125"/><stop stop-opacity="1" stop-color="rgb(25.047302%, 32.922363%, 72.663879%)" offset="0.820312"/><stop stop-opacity="1" stop-color="rgb(25.288391%, 32.669067%, 72.691345%)" offset="0.828125"/><stop stop-opacity="1" stop-color="rgb(25.52948%, 32.417297%, 72.718811%)" offset="0.835937"/><stop stop-opacity="1" stop-color="rgb(25.770569%, 32.164001%, 72.746277%)" offset="0.84375"/><stop stop-opacity="1" stop-color="rgb(26.011658%, 31.912231%, 72.773743%)" offset="0.851563"/><stop stop-opacity="1" stop-color="rgb(26.251221%, 31.658936%, 72.802734%)" offset="0.859375"/><stop stop-opacity="1" stop-color="rgb(26.49231%, 31.407166%, 72.8302%)" offset="0.867188"/><stop stop-opacity="1" stop-color="rgb(26.733398%, 31.15387%, 72.857666%)" offset="0.875"/><stop stop-opacity="1" stop-color="rgb(26.974487%, 30.9021%, 72.885132%)" offset="0.882812"/><stop stop-opacity="1" stop-color="rgb(27.215576%, 30.648804%, 72.912598%)" offset="0.890625"/><stop stop-opacity="1" stop-color="rgb(27.455139%, 30.397034%, 72.940063%)" offset="0.898438"/><stop stop-opacity="1" stop-color="rgb(27.696228%, 30.143738%, 72.967529%)" offset="0.90625"/><stop stop-opacity="1" stop-color="rgb(27.937317%, 29.891968%, 72.994995%)" offset="0.914062"/><stop stop-opacity="1" stop-color="rgb(28.178406%, 29.638672%, 73.022461%)" offset="0.921875"/><stop stop-opacity="1" stop-color="rgb(28.417969%, 29.385376%, 73.049927%)" offset="0.929687"/><stop stop-opacity="1" stop-color="rgb(28.659058%, 29.133606%, 73.077393%)" offset="0.9375"/><stop stop-opacity="1" stop-color="rgb(28.900146%, 28.88031%, 73.104858%)" offset="0.945312"/><stop stop-opacity="1" stop-color="rgb(29.141235%, 28.62854%, 73.132324%)" offset="0.953125"/><stop stop-opacity="1" stop-color="rgb(29.382324%, 28.375244%, 73.15979%)" offset="0.960938"/><stop stop-opacity="1" stop-color="rgb(29.621887%, 28.123474%, 73.187256%)" offset="0.96875"/><stop stop-opacity="1" stop-color="rgb(29.862976%, 27.870178%, 73.214722%)" offset="0.976562"/><stop stop-opacity="1" stop-color="rgb(30.104065%, 27.618408%, 73.242188%)" offset="0.984375"/><stop stop-opacity="1" stop-color="rgb(30.345154%, 27.365112%, 73.269653%)" offset="0.992188"/><stop stop-opacity="1" stop-color="rgb(30.532837%, 27.1698%, 73.291016%)" offset="1"/></linearGradient></defs><g clip-path="url(#b51a25effe)"><path fill="#1e88e5" d="M 277.6875 140.023438 C 288.210938 140.023438 296.8125 148.628906 296.8125 159.152344 C 296.8125 169.671875 288.210938 178.277344 277.6875 178.277344 C 267.164062 178.277344 258.5625 169.671875 258.5625 159.152344 C 258.5625 148.628906 267.164062 140.023438 277.6875 140.023438 Z M 277.6875 140.023438 " fill-opacity="1" fill-rule="evenodd"/></g><path fill="#fffffe" d="M 271.785156 164.6875 L 273.039062 164.6875 L 273.039062 165.941406 L 271.785156 165.941406 Z M 271.785156 164.6875 " fill-opacity="1" fill-rule="evenodd"/><path fill="#fffffe" d="M 271.785156 161.027344 L 273.039062 161.027344 L 273.039062 162.28125 L 271.785156 162.28125 Z M 271.785156 161.027344 " fill-opacity="1" fill-rule="evenodd"/><path fill="#fffffe" d="M 271.785156 157.367188 L 273.039062 157.367188 L 273.039062 158.621094 L 271.785156 158.621094 Z M 271.785156 157.367188 " fill-opacity="1" fill-rule="evenodd"/><path fill="#fffffe" d="M 271.785156 153.707031 L 273.039062 153.707031 L 273.039062 154.960938 L 271.785156 154.960938 Z M 271.785156 153.707031 " fill-opacity="1" fill-rule="evenodd"/><path fill="#fffffe" d="M 282.292969 150.457031 L 282.292969 160.773438 L 283.082031 160.773438 L 283.082031 149.441406 L 279.078125 149.441406 L 279.078125 150.226562 L 282.0625 150.226562 C 282.191406 150.226562 282.292969 150.332031 282.292969 150.457031 Z M 282.292969 150.457031 " fill-opacity="1" fill-rule="evenodd"/><path fill="#fffffe" d="M 272.902344 148.691406 L 278.617188 148.691406 L 278.617188 151.011719 L 272.902344 151.011719 Z M 272.902344 148.691406 " fill-opacity="1" fill-rule="evenodd"/><path fill="#fffffe" d="M 269.6875 168.363281 L 278.101562 168.363281 L 278.101562 165.421875 C 278.101562 165.296875 278.203125 165.191406 278.332031 165.191406 L 280.3125 165.191406 L 280.3125 161.003906 C 280.3125 160.878906 280.414062 160.773438 280.539062 160.773438 L 281.832031 160.773438 L 281.832031 150.6875 L 279.078125 150.6875 L 279.078125 151.242188 C 279.078125 151.371094 278.972656 151.472656 278.847656 151.472656 L 272.671875 151.472656 C 272.546875 151.472656 272.441406 151.371094 272.441406 151.242188 L 272.441406 150.6875 L 269.6875 150.6875 Z M 275.5 154.105469 L 279.960938 154.105469 C 280.089844 154.105469 280.191406 154.207031 280.191406 154.335938 C 280.191406 154.460938 280.089844 154.5625 279.960938 154.5625 L 275.5 154.5625 C 275.371094 154.5625 275.269531 154.460938 275.269531 154.335938 C 275.269531 154.207031 275.371094 154.105469 275.5 154.105469 Z M 275.5 157.765625 L 279.960938 157.765625 C 280.089844 157.765625 280.191406 157.867188 280.191406 157.996094 C 280.191406 158.121094 280.089844 158.222656 279.960938 158.222656 L 275.5 158.222656 C 275.371094 158.222656 275.269531 158.121094 275.269531 157.996094 C 275.269531 157.867188 275.371094 157.765625 275.5 157.765625 Z M 275.5 161.425781 L 278.398438 161.425781 C 278.523438 161.425781 278.628906 161.527344 278.628906 161.65625 C 278.628906 161.78125 278.523438 161.882812 278.398438 161.882812 L 275.5 161.882812 C 275.371094 161.882812 275.269531 161.78125 275.269531 161.65625 C 275.269531 161.527344 275.371094 161.425781 275.5 161.425781 Z M 275.5 165.085938 L 276.1875 165.085938 C 276.316406 165.085938 276.417969 165.1875 276.417969 165.316406 C 276.417969 165.441406 276.316406 165.542969 276.1875 165.542969 L 275.5 165.542969 C 275.371094 165.542969 275.269531 165.441406 275.269531 165.316406 C 275.269531 165.1875 275.371094 165.085938 275.5 165.085938 Z M 271.328125 153.480469 C 271.328125 153.351562 271.429688 153.25 271.554688 153.25 L 273.265625 153.25 C 273.394531 153.25 273.496094 153.351562 273.496094 153.480469 L 273.496094 155.191406 C 273.496094 155.316406 273.394531 155.417969 273.265625 155.417969 L 271.554688 155.417969 C 271.429688 155.417969 271.328125 155.316406 271.328125 155.191406 Z M 271.328125 157.140625 C 271.328125 157.011719 271.429688 156.910156 271.554688 156.910156 L 273.265625 156.910156 C 273.394531 156.910156 273.496094 157.011719 273.496094 157.140625 L 273.496094 158.851562 C 273.496094 158.976562 273.394531 159.078125 273.265625 159.078125 L 271.554688 159.078125 C 271.429688 159.078125 271.328125 158.976562 271.328125 158.851562 Z M 271.328125 160.800781 C 271.328125 160.671875 271.429688 160.570312 271.554688 160.570312 L 273.265625 160.570312 C 273.394531 160.570312 273.496094 160.671875 273.496094 160.800781 L 273.496094 162.511719 C 273.496094 162.636719 273.394531 162.738281 273.265625 162.738281 L 271.554688 162.738281 C 271.429688 162.738281 271.328125 162.636719 271.328125 162.511719 Z M 271.328125 164.460938 C 271.328125 164.332031 271.429688 164.230469 271.554688 164.230469 L 273.265625 164.230469 C 273.394531 164.230469 273.496094 164.332031 273.496094 164.460938 L 273.496094 166.171875 C 273.496094 166.296875 273.394531 166.398438 273.265625 166.398438 L 271.554688 166.398438 C 271.429688 166.398438 271.328125 166.296875 271.328125 166.171875 Z M 271.328125 164.460938 " fill-opacity="1" fill-rule="evenodd"/><path fill="#fffffe" d="M 283.929688 163.164062 C 283.898438 163.179688 283.863281 163.1875 283.828125 163.1875 C 283.777344 163.1875 283.730469 163.167969 283.6875 163.136719 L 282.953125 162.554688 L 282.214844 163.136719 C 282.148438 163.191406 282.054688 163.199219 281.972656 163.164062 C 281.894531 163.125 281.84375 163.042969 281.84375 162.957031 L 281.84375 161.234375 L 280.863281 161.234375 L 280.863281 165.191406 L 284.929688 165.191406 L 284.929688 161.234375 L 284.058594 161.234375 L 284.058594 162.957031 C 284.058594 163.042969 284.007812 163.125 283.929688 163.164062 Z M 283.929688 163.164062 " fill-opacity="1" fill-rule="evenodd"/><path fill="#fffffe" d="M 282.28125 162.480469 L 282.808594 162.082031 C 282.894531 162.015625 283.011719 162.015625 283.09375 162.082031 L 283.601562 162.480469 L 283.601562 161.234375 L 282.28125 161.234375 Z M 282.28125 162.480469 " fill-opacity="1" fill-rule="evenodd"/><path fill="#fffffe" d="M 285.9375 167.582031 C 285.90625 167.59375 285.871094 167.601562 285.835938 167.601562 C 285.785156 167.601562 285.734375 167.585938 285.695312 167.554688 L 284.957031 166.972656 L 284.222656 167.554688 C 284.152344 167.609375 284.058594 167.617188 283.980469 167.582031 C 283.902344 167.542969 283.851562 167.460938 283.851562 167.375 L 283.851562 165.652344 L 282.980469 165.652344 L 282.980469 169.609375 L 286.9375 169.609375 L 286.9375 165.652344 L 286.066406 165.652344 L 286.066406 167.375 C 286.066406 167.460938 286.015625 167.542969 285.9375 167.582031 Z M 285.9375 167.582031 " fill-opacity="1" fill-rule="evenodd"/><path fill="#fffffe" d="M 284.953125 165.652344 L 284.308594 165.652344 L 284.308594 166.898438 L 284.816406 166.5 C 284.898438 166.433594 285.015625 166.433594 285.101562 166.5 L 285.605469 166.898438 L 285.605469 165.652344 L 284.964844 165.652344 C 284.960938 165.652344 284.960938 165.652344 284.957031 165.652344 C 284.957031 165.652344 284.953125 165.652344 284.953125 165.652344 Z M 284.953125 165.652344 " fill-opacity="1" fill-rule="evenodd"/><path fill="#fffffe" d="M 280.398438 166.5 C 280.480469 166.433594 280.597656 166.433594 280.683594 166.5 L 281.1875 166.898438 L 281.1875 165.652344 L 280.546875 165.652344 C 280.542969 165.652344 280.542969 165.652344 280.539062 165.652344 C 280.539062 165.652344 280.535156 165.652344 280.535156 165.652344 L 279.890625 165.652344 L 279.890625 166.898438 Z M 280.398438 166.5 " fill-opacity="1" fill-rule="evenodd"/><path fill="#fffffe" d="M 281.648438 165.652344 L 281.648438 167.375 C 281.648438 167.460938 281.597656 167.542969 281.519531 167.582031 C 281.4375 167.617188 281.34375 167.609375 281.277344 167.554688 L 280.539062 166.972656 L 279.804688 167.554688 C 279.761719 167.585938 279.714844 167.601562 279.664062 167.601562 C 279.628906 167.601562 279.59375 167.59375 279.5625 167.578125 C 279.484375 167.542969 279.433594 167.460938 279.433594 167.375 L 279.433594 165.652344 L 278.5625 165.652344 L 278.5625 169.609375 L 282.519531 169.609375 L 282.519531 165.652344 Z M 281.648438 165.652344 " fill-opacity="1" fill-rule="evenodd"/><path fill="#fffffe" d="M 269.226562 168.59375 L 269.226562 150.457031 C 269.226562 150.332031 269.328125 150.226562 269.457031 150.226562 L 272.441406 150.226562 L 272.441406 149.441406 L 268.4375 149.441406 L 268.4375 169.609375 L 278.101562 169.609375 L 278.101562 168.820312 L 269.457031 168.820312 C 269.328125 168.820312 269.226562 168.71875 269.226562 168.59375 Z M 269.226562 168.59375 " fill-opacity="1" fill-rule="evenodd"/><g fill="#0d0221" fill-opacity="0.302"><g transform="translate(31.439237, 182.886756)"><g><path d="M 5.328125 -47.578125 L 15.6875 -47.578125 L 15.6875 0 L 5.328125 0 Z M 5.328125 -47.578125 "/></g></g></g><g fill="#0d0221" fill-opacity="0.302"><g transform="translate(57.857292, 182.886756)"><g><path d="M 15.125 -28.328125 L 15.125 0 L 5.328125 0 L 5.328125 -48.4375 L 10.71875 -48.4375 L 37.28125 -19.25 L 37.28125 -47.578125 L 47.078125 -47.578125 L 47.078125 0.859375 L 41.6875 0.859375 Z M 15.125 -28.328125 "/></g></g></g><g fill="#0d0221" fill-opacity="0.302"><g transform="translate(115.664234, 182.886756)"><g><path d="M 0.359375 -47.578125 L 11.15625 -47.578125 L 21.515625 -19.25 L 32.03125 -47.578125 L 42.6875 -47.578125 L 24.21875 0.859375 L 18.75 0.859375 Z M 0.359375 -47.578125 "/></g></g></g><g fill="#0d0221" fill-opacity="0.302"><g transform="translate(164.097115, 182.886756)"><g><path d="M 5.328125 -47.578125 L 19.75 -47.578125 C 22.300781 -47.578125 24.65625 -47.175781 26.8125 -46.375 C 28.96875 -45.570312 30.828125 -44.445312 32.390625 -43 C 33.953125 -41.550781 35.171875 -39.84375 36.046875 -37.875 C 36.921875 -35.914062 37.359375 -33.773438 37.359375 -31.453125 C 37.359375 -29.140625 36.921875 -27 36.046875 -25.03125 C 35.171875 -23.0625 33.972656 -21.367188 32.453125 -19.953125 C 30.941406 -18.535156 29.117188 -17.421875 26.984375 -16.609375 C 24.859375 -15.804688 22.5625 -15.40625 20.09375 -15.40625 L 15.6875 -15.40625 L 15.6875 0 L 5.328125 0 Z M 19.75 -25.140625 C 21.925781 -25.140625 23.675781 -25.695312 25 -26.8125 C 26.320312 -27.925781 26.984375 -29.472656 26.984375 -31.453125 C 26.984375 -33.398438 26.320312 -34.953125 25 -36.109375 C 23.675781 -37.265625 21.925781 -37.84375 19.75 -37.84375 L 15.6875 -37.84375 L 15.6875 -25.140625 Z M 19.75 -25.140625 "/></g></g></g><g fill="#0d0221" fill-opacity="0.302"><g transform="translate(209.689378, 182.886756)"><g><path d="M 5.328125 -47.578125 L 20.234375 -47.578125 C 22.703125 -47.578125 24.988281 -47.195312 27.09375 -46.4375 C 29.195312 -45.6875 31.003906 -44.625 32.515625 -43.25 C 34.035156 -41.875 35.222656 -40.238281 36.078125 -38.34375 C 36.929688 -36.445312 37.359375 -34.390625 37.359375 -32.171875 C 37.359375 -29.328125 36.671875 -26.753906 35.296875 -24.453125 C 33.921875 -22.160156 32.023438 -20.378906 29.609375 -19.109375 L 40.765625 0 L 28.6875 0 L 19.453125 -16.6875 L 15.6875 -16.6875 L 15.6875 0 L 5.328125 0 Z M 19.75 -25.84375 C 21.96875 -25.84375 23.726562 -26.398438 25.03125 -27.515625 C 26.332031 -28.628906 26.984375 -30.15625 26.984375 -32.09375 C 26.984375 -34.039062 26.320312 -35.484375 25 -36.421875 C 23.675781 -37.367188 21.925781 -37.84375 19.75 -37.84375 L 15.6875 -37.84375 L 15.6875 -25.84375 Z M 19.75 -25.84375 "/></g></g></g><g fill="#0d0221" fill-opacity="0.302"><g transform="translate(256.914999, 182.886756)"><g><path d="M 27.0625 1 C 23.550781 1 20.304688 0.359375 17.328125 -0.921875 C 14.347656 -2.203125 11.753906 -3.953125 9.546875 -6.171875 C 7.347656 -8.398438 5.617188 -11.015625 4.359375 -14.015625 C 3.109375 -17.023438 2.484375 -20.285156 2.484375 -23.796875 C 2.484375 -27.296875 3.109375 -30.5625 4.359375 -33.59375 C 5.617188 -36.625 7.347656 -39.25 9.546875 -41.46875 C 11.753906 -43.695312 14.347656 -45.4375 17.328125 -46.6875 C 20.304688 -47.945312 23.550781 -48.578125 27.0625 -48.578125 C 30.507812 -48.578125 33.738281 -47.945312 36.75 -46.6875 C 39.757812 -45.4375 42.363281 -43.695312 44.5625 -41.46875 C 46.757812 -39.25 48.484375 -36.625 49.734375 -33.59375 C 50.992188 -30.5625 51.625 -27.296875 51.625 -23.796875 C 51.625 -20.285156 50.992188 -17.023438 49.734375 -14.015625 C 48.484375 -11.015625 46.757812 -8.398438 44.5625 -6.171875 C 42.363281 -3.953125 39.757812 -2.203125 36.75 -0.921875 C 33.738281 0.359375 30.507812 1 27.0625 1 Z M 27.0625 -9.09375 C 29.050781 -9.09375 30.875 -9.457031 32.53125 -10.1875 C 34.1875 -10.925781 35.613281 -11.957031 36.8125 -13.28125 C 38.019531 -14.601562 38.96875 -16.164062 39.65625 -17.96875 C 40.34375 -19.769531 40.6875 -21.710938 40.6875 -23.796875 C 40.6875 -25.878906 40.34375 -27.816406 39.65625 -29.609375 C 38.96875 -31.410156 38.019531 -32.960938 36.8125 -34.265625 C 35.613281 -35.566406 34.1875 -36.59375 32.53125 -37.34375 C 30.875 -38.101562 29.050781 -38.484375 27.0625 -38.484375 C 25.070312 -38.484375 23.25 -38.101562 21.59375 -37.34375 C 19.9375 -36.59375 18.503906 -35.566406 17.296875 -34.265625 C 16.085938 -32.960938 15.140625 -31.410156 14.453125 -29.609375 C 13.765625 -27.816406 13.421875 -25.878906 13.421875 -23.796875 C 13.421875 -21.710938 13.765625 -19.769531 14.453125 -17.96875 C 15.140625 -16.164062 16.085938 -14.613281 17.296875 -13.3125 C 18.503906 -12.007812 19.9375 -10.976562 21.59375 -10.21875 C 23.25 -9.46875 25.070312 -9.09375 27.0625 -9.09375 Z M 27.0625 -9.09375 "/></g></g></g><g fill="#0d0221" fill-opacity="0.502"><g transform="translate(27.626883, 181.423332)"><g><path d="M 5.328125 -47.578125 L 15.6875 -47.578125 L 15.6875 0 L 5.328125 0 Z M 5.328125 -47.578125 "/></g></g></g><g fill="#0d0221" fill-opacity="0.502"><g transform="translate(54.044937, 181.423332)"><g><path d="M 15.125 -28.328125 L 15.125 0 L 5.328125 0 L 5.328125 -48.4375 L 10.71875 -48.4375 L 37.28125 -19.25 L 37.28125 -47.578125 L 47.078125 -47.578125 L 47.078125 0.859375 L 41.6875 0.859375 Z M 15.125 -28.328125 "/></g></g></g><g fill="#0d0221" fill-opacity="0.502"><g transform="translate(111.851879, 181.423332)"><g><path d="M 0.359375 -47.578125 L 11.15625 -47.578125 L 21.515625 -19.25 L 32.03125 -47.578125 L 42.6875 -47.578125 L 24.21875 0.859375 L 18.75 0.859375 Z M 0.359375 -47.578125 "/></g></g></g><g fill="#0d0221" fill-opacity="0.502"><g transform="translate(160.28476, 181.423332)"><g><path d="M 5.328125 -47.578125 L 19.75 -47.578125 C 22.300781 -47.578125 24.65625 -47.175781 26.8125 -46.375 C 28.96875 -45.570312 30.828125 -44.445312 32.390625 -43 C 33.953125 -41.550781 35.171875 -39.84375 36.046875 -37.875 C 36.921875 -35.914062 37.359375 -33.773438 37.359375 -31.453125 C 37.359375 -29.140625 36.921875 -27 36.046875 -25.03125 C 35.171875 -23.0625 33.972656 -21.367188 32.453125 -19.953125 C 30.941406 -18.535156 29.117188 -17.421875 26.984375 -16.609375 C 24.859375 -15.804688 22.5625 -15.40625 20.09375 -15.40625 L 15.6875 -15.40625 L 15.6875 0 L 5.328125 0 Z M 19.75 -25.140625 C 21.925781 -25.140625 23.675781 -25.695312 25 -26.8125 C 26.320312 -27.925781 26.984375 -29.472656 26.984375 -31.453125 C 26.984375 -33.398438 26.320312 -34.953125 25 -36.109375 C 23.675781 -37.265625 21.925781 -37.84375 19.75 -37.84375 L 15.6875 -37.84375 L 15.6875 -25.140625 Z M 19.75 -25.140625 "/></g></g></g><g fill="#0d0221" fill-opacity="0.502"><g transform="translate(205.877023, 181.423332)"><g><path d="M 5.328125 -47.578125 L 20.234375 -47.578125 C 22.703125 -47.578125 24.988281 -47.195312 27.09375 -46.4375 C 29.195312 -45.6875 31.003906 -44.625 32.515625 -43.25 C 34.035156 -41.875 35.222656 -40.238281 36.078125 -38.34375 C 36.929688 -36.445312 37.359375 -34.390625 37.359375 -32.171875 C 37.359375 -29.328125 36.671875 -26.753906 35.296875 -24.453125 C 33.921875 -22.160156 32.023438 -20.378906 29.609375 -19.109375 L 40.765625 0 L 28.6875 0 L 19.453125 -16.6875 L 15.6875 -16.6875 L 15.6875 0 L 5.328125 0 Z M 19.75 -25.84375 C 21.96875 -25.84375 23.726562 -26.398438 25.03125 -27.515625 C 26.332031 -28.628906 26.984375 -30.15625 26.984375 -32.09375 C 26.984375 -34.039062 26.320312 -35.484375 25 -36.421875 C 23.675781 -37.367188 21.925781 -37.84375 19.75 -37.84375 L 15.6875 -37.84375 L 15.6875 -25.84375 Z M 19.75 -25.84375 "/></g></g></g><g fill="#0d0221" fill-opacity="0.502"><g transform="translate(253.102645, 181.423332)"><g><path d="M 27.0625 1 C 23.550781 1 20.304688 0.359375 17.328125 -0.921875 C 14.347656 -2.203125 11.753906 -3.953125 9.546875 -6.171875 C 7.347656 -8.398438 5.617188 -11.015625 4.359375 -14.015625 C 3.109375 -17.023438 2.484375 -20.285156 2.484375 -23.796875 C 2.484375 -27.296875 3.109375 -30.5625 4.359375 -33.59375 C 5.617188 -36.625 7.347656 -39.25 9.546875 -41.46875 C 11.753906 -43.695312 14.347656 -45.4375 17.328125 -46.6875 C 20.304688 -47.945312 23.550781 -48.578125 27.0625 -48.578125 C 30.507812 -48.578125 33.738281 -47.945312 36.75 -46.6875 C 39.757812 -45.4375 42.363281 -43.695312 44.5625 -41.46875 C 46.757812 -39.25 48.484375 -36.625 49.734375 -33.59375 C 50.992188 -30.5625 51.625 -27.296875 51.625 -23.796875 C 51.625 -20.285156 50.992188 -17.023438 49.734375 -14.015625 C 48.484375 -11.015625 46.757812 -8.398438 44.5625 -6.171875 C 42.363281 -3.953125 39.757812 -2.203125 36.75 -0.921875 C 33.738281 0.359375 30.507812 1 27.0625 1 Z M 27.0625 -9.09375 C 29.050781 -9.09375 30.875 -9.457031 32.53125 -10.1875 C 34.1875 -10.925781 35.613281 -11.957031 36.8125 -13.28125 C 38.019531 -14.601562 38.96875 -16.164062 39.65625 -17.96875 C 40.34375 -19.769531 40.6875 -21.710938 40.6875 -23.796875 C 40.6875 -25.878906 40.34375 -27.816406 39.65625 -29.609375 C 38.96875 -31.410156 38.019531 -32.960938 36.8125 -34.265625 C 35.613281 -35.566406 34.1875 -36.59375 32.53125 -37.34375 C 30.875 -38.101562 29.050781 -38.484375 27.0625 -38.484375 C 25.070312 -38.484375 23.25 -38.101562 21.59375 -37.34375 C 19.9375 -36.59375 18.503906 -35.566406 17.296875 -34.265625 C 16.085938 -32.960938 15.140625 -31.410156 14.453125 -29.609375 C 13.765625 -27.816406 13.421875 -25.878906 13.421875 -23.796875 C 13.421875 -21.710938 13.765625 -19.769531 14.453125 -17.96875 C 15.140625 -16.164062 16.085938 -14.613281 17.296875 -13.3125 C 18.503906 -12.007812 19.9375 -10.976562 21.59375 -10.21875 C 23.25 -9.46875 25.070312 -9.09375 27.0625 -9.09375 Z M 27.0625 -9.09375 "/></g></g></g><g fill="#ffffff" fill-opacity="1"><g transform="translate(23.81453, 179.959911)"><g><path d="M 5.328125 -47.578125 L 15.6875 -47.578125 L 15.6875 0 L 5.328125 0 Z M 5.328125 -47.578125 "/></g></g></g><g fill="#ffffff" fill-opacity="1"><g transform="translate(50.232584, 179.959911)"><g><path d="M 15.125 -28.328125 L 15.125 0 L 5.328125 0 L 5.328125 -48.4375 L 10.71875 -48.4375 L 37.28125 -19.25 L 37.28125 -47.578125 L 47.078125 -47.578125 L 47.078125 0.859375 L 41.6875 0.859375 Z M 15.125 -28.328125 "/></g></g></g><g fill="#ffffff" fill-opacity="1"><g transform="translate(108.039527, 179.959911)"><g><path d="M 0.359375 -47.578125 L 11.15625 -47.578125 L 21.515625 -19.25 L 32.03125 -47.578125 L 42.6875 -47.578125 L 24.21875 0.859375 L 18.75 0.859375 Z M 0.359375 -47.578125 "/></g></g></g><g fill="#ffffff" fill-opacity="1"><g transform="translate(156.472408, 179.959911)"><g><path d="M 5.328125 -47.578125 L 19.75 -47.578125 C 22.300781 -47.578125 24.65625 -47.175781 26.8125 -46.375 C 28.96875 -45.570312 30.828125 -44.445312 32.390625 -43 C 33.953125 -41.550781 35.171875 -39.84375 36.046875 -37.875 C 36.921875 -35.914062 37.359375 -33.773438 37.359375 -31.453125 C 37.359375 -29.140625 36.921875 -27 36.046875 -25.03125 C 35.171875 -23.0625 33.972656 -21.367188 32.453125 -19.953125 C 30.941406 -18.535156 29.117188 -17.421875 26.984375 -16.609375 C 24.859375 -15.804688 22.5625 -15.40625 20.09375 -15.40625 L 15.6875 -15.40625 L 15.6875 0 L 5.328125 0 Z M 19.75 -25.140625 C 21.925781 -25.140625 23.675781 -25.695312 25 -26.8125 C 26.320312 -27.925781 26.984375 -29.472656 26.984375 -31.453125 C 26.984375 -33.398438 26.320312 -34.953125 25 -36.109375 C 23.675781 -37.265625 21.925781 -37.84375 19.75 -37.84375 L 15.6875 -37.84375 L 15.6875 -25.140625 Z M 19.75 -25.140625 "/></g></g></g><g fill="#ffffff" fill-opacity="1"><g transform="translate(202.064671, 179.959911)"><g><path d="M 5.328125 -47.578125 L 20.234375 -47.578125 C 22.703125 -47.578125 24.988281 -47.195312 27.09375 -46.4375 C 29.195312 -45.6875 31.003906 -44.625 32.515625 -43.25 C 34.035156 -41.875 35.222656 -40.238281 36.078125 -38.34375 C 36.929688 -36.445312 37.359375 -34.390625 37.359375 -32.171875 C 37.359375 -29.328125 36.671875 -26.753906 35.296875 -24.453125 C 33.921875 -22.160156 32.023438 -20.378906 29.609375 -19.109375 L 40.765625 0 L 28.6875 0 L 19.453125 -16.6875 L 15.6875 -16.6875 L 15.6875 0 L 5.328125 0 Z M 19.75 -25.84375 C 21.96875 -25.84375 23.726562 -26.398438 25.03125 -27.515625 C 26.332031 -28.628906 26.984375 -30.15625 26.984375 -32.09375 C 26.984375 -34.039062 26.320312 -35.484375 25 -36.421875 C 23.675781 -37.367188 21.925781 -37.84375 19.75 -37.84375 L 15.6875 -37.84375 L 15.6875 -25.84375 Z M 19.75 -25.84375 "/></g></g></g><g fill="#ffffff" fill-opacity="1"><g transform="translate(249.290292, 179.959911)"><g><path d="M 27.0625 1 C 23.550781 1 20.304688 0.359375 17.328125 -0.921875 C 14.347656 -2.203125 11.753906 -3.953125 9.546875 -6.171875 C 7.347656 -8.398438 5.617188 -11.015625 4.359375 -14.015625 C 3.109375 -17.023438 2.484375 -20.285156 2.484375 -23.796875 C 2.484375 -27.296875 3.109375 -30.5625 4.359375 -33.59375 C 5.617188 -36.625 7.347656 -39.25 9.546875 -41.46875 C 11.753906 -43.695312 14.347656 -45.4375 17.328125 -46.6875 C 20.304688 -47.945312 23.550781 -48.578125 27.0625 -48.578125 C 30.507812 -48.578125 33.738281 -47.945312 36.75 -46.6875 C 39.757812 -45.4375 42.363281 -43.695312 44.5625 -41.46875 C 46.757812 -39.25 48.484375 -36.625 49.734375 -33.59375 C 50.992188 -30.5625 51.625 -27.296875 51.625 -23.796875 C 51.625 -20.285156 50.992188 -17.023438 49.734375 -14.015625 C 48.484375 -11.015625 46.757812 -8.398438 44.5625 -6.171875 C 42.363281 -3.953125 39.757812 -2.203125 36.75 -0.921875 C 33.738281 0.359375 30.507812 1 27.0625 1 Z M 27.0625 -9.09375 C 29.050781 -9.09375 30.875 -9.457031 32.53125 -10.1875 C 34.1875 -10.925781 35.613281 -11.957031 36.8125 -13.28125 C 38.019531 -14.601562 38.96875 -16.164062 39.65625 -17.96875 C 40.34375 -19.769531 40.6875 -21.710938 40.6875 -23.796875 C 40.6875 -25.878906 40.34375 -27.816406 39.65625 -29.609375 C 38.96875 -31.410156 38.019531 -32.960938 36.8125 -34.265625 C 35.613281 -35.566406 34.1875 -36.59375 32.53125 -37.34375 C 30.875 -38.101562 29.050781 -38.484375 27.0625 -38.484375 C 25.070312 -38.484375 23.25 -38.101562 21.59375 -37.34375 C 19.9375 -36.59375 18.503906 -35.566406 17.296875 -34.265625 C 16.085938 -32.960938 15.140625 -31.410156 14.453125 -29.609375 C 13.765625 -27.816406 13.421875 -25.878906 13.421875 -23.796875 C 13.421875 -21.710938 13.765625 -19.769531 14.453125 -17.96875 C 15.140625 -16.164062 16.085938 -14.613281 17.296875 -13.3125 C 18.503906 -12.007812 19.9375 -10.976562 21.59375 -10.21875 C 23.25 -9.46875 25.070312 -9.09375 27.0625 -9.09375 Z M 27.0625 -9.09375 "/></g></g></g><path fill="#8c85db" d="M 329.980469 156.835938 L 329.980469 156.863281 L 329.511719 157.128906 L 329.492188 157.117188 Z M 329.980469 156.835938 " fill-opacity="1" fill-rule="nonzero"/><g clip-path="url(#972a49fcd4)"><g clip-path="url(#b04d4245a1)"><path fill="url(#5eab2a536a)" d="M 310.996094 146.675781 L 310.996094 173.113281 L 348.027344 173.113281 L 348.027344 146.675781 Z M 310.996094 146.675781 " fill-rule="nonzero"/></g></g><g clip-path="url(#0d29fa3c15)"><g clip-path="url(#0398a955b8)"><path fill="url(#5ce344b693)" d="M 313.367188 136.753906 L 313.367188 147.191406 L 345.617188 147.191406 L 345.617188 136.753906 Z M 313.367188 136.753906 " fill-rule="nonzero"/></g></g></svg>